<?xml version="1.0" standalone="no"?>
<!DOCTYPE svg PUBLIC "-//W3C//DTD SVG 20010904//EN"
 "http://www.w3.org/TR/2001/REC-SVG-20010904/DTD/svg10.dtd">
<svg version="1.0" xmlns="http://www.w3.org/2000/svg"
 width="300.000000pt" height="296.000000pt" viewBox="0 0 300.000000 296.000000"
 preserveAspectRatio="xMidYMid meet">
<metadata>
Created by potrace 1.12, written by Peter Selinger 2001-2015
</metadata>
<g transform="translate(0.000000,296.000000) scale(0.100000,-0.100000)"
fill="#000000" stroke="none">
<path d="M1318 2950 c-1 -5 -58 -65 -126 -134 l-123 -124 -177 105 c-188 112
-239 139 -246 132 -3 -2 1 -91 9 -197 7 -106 11 -203 7 -215 -8 -35 -40 -75
-138 -177 -124 -129 -127 -135 -134 -305 -9 -188 -16 -205 -193 -484 -154
-244 -197 -345 -197 -465 0 -160 123 -288 292 -303 55 -6 59 -8 65 -34 8 -40
50 -79 85 -79 84 0 146 59 248 240 119 211 150 238 442 398 92 50 205 116 252
146 l84 54 6 -30 c12 -58 6 -239 -10 -316 -20 -98 -61 -204 -112 -290 -26 -43
-103 -133 -217 -252 -98 -102 -192 -208 -211 -235 -55 -82 -77 -156 -82 -277
l-4 -108 1081 0 1081 0 0 43 c0 96 -22 393 -40 552 -60 521 -199 1062 -352
1370 -130 261 -341 472 -562 564 -132 55 -240 73 -400 69 l-139 -4 -88 183
c-49 101 -91 183 -93 183 -2 0 -6 -4 -8 -10z m626 -425 c206 -61 389 -193 519
-376 66 -93 157 -281 210 -434 135 -392 251 -1025 274 -1501 6 -126 5 -138
-12 -150 -10 -8 -27 -14 -37 -14 -34 0 -46 40 -58 200 -23 315 -61 590 -121
879 -114 551 -240 864 -429 1064 -193 206 -433 289 -732 254 -54 -6 -69 -5
-82 9 -23 23 -20 61 6 75 70 37 325 34 462 -6z m-1104 -361 c0 -26 -68 -121
-118 -165 -48 -42 -156 -103 -173 -97 -15 5 107 199 151 241 35 33 45 37 90
37 39 0 50 -3 50 -16z m-575 -959 c28 -27 32 -61 11 -91 -8 -11 -49 -44 -90
-73 l-76 -52 0 40 c0 153 84 248 155 176z"/>
</g>
</svg>
