<?xml version="1.0" standalone="no"?>
<!DOCTYPE svg PUBLIC "-//W3C//DTD SVG 20010904//EN"
 "http://www.w3.org/TR/2001/REC-SVG-20010904/DTD/svg10.dtd">
<svg version="1.0" xmlns="http://www.w3.org/2000/svg"
 width="500.000000pt" height="382.000000pt" viewBox="0 0 500.000000 382.000000"
 preserveAspectRatio="xMidYMid meet">
<metadata>
Created by potrace 1.12, written by Peter Selinger 2001-2015
</metadata>
<g transform="translate(0.000000,382.000000) scale(0.100000,-0.100000)"
fill="#000000" stroke="none">
<path d="M545 3802 c-110 -19 -134 -19 -255 -3 -52 7 -137 11 -188 9 l-92 -3
100 -83 c55 -45 106 -95 112 -110 7 -17 12 -146 15 -367 4 -426 21 -674 49
-713 52 -71 175 -93 262 -47 26 14 55 25 64 25 28 0 45 48 51 140 4 63 17 121
50 224 l45 140 58 29 c68 34 67 35 115 -70 62 -135 70 -182 80 -508 10 -316
19 -391 64 -499 13 -33 23 -61 22 -62 -1 0 -66 -17 -144 -37 -245 -62 -473
-167 -554 -254 -36 -39 -39 -47 -39 -98 0 -140 163 -645 265 -820 33 -57 112
-128 181 -163 58 -29 183 -72 210 -72 11 0 14 27 14 140 l0 140 -62 0 -63 1
-26 43 c-18 29 -41 50 -72 65 -25 12 -50 28 -57 35 -6 8 -20 74 -31 147 -10
74 -26 169 -34 213 -21 110 -20 134 8 146 31 14 259 57 342 65 103 10 240 48
328 89 l77 37 30 -21 c51 -36 104 -105 166 -216 34 -60 91 -158 128 -219 151
-250 336 -670 336 -763 0 -43 -6 -56 -56 -122 -54 -72 -85 -125 -117 -202
l-16 -38 158 0 158 0 5 63 c6 67 32 130 68 162 13 11 31 37 40 59 22 47 15 76
-41 187 -49 98 -73 172 -94 284 -9 50 -35 158 -57 240 -37 137 -130 585 -122
593 1 2 45 -2 96 -9 118 -17 480 -17 613 0 55 7 152 21 216 32 143 24 138 24
144 -3 32 -147 76 -307 121 -444 46 -135 55 -174 50 -206 -12 -75 -80 -187
-261 -433 -144 -195 -282 -398 -314 -462 l-31 -63 164 0 c186 0 176 -5 176 91
0 41 4 49 41 78 31 25 52 57 85 129 92 198 254 401 431 539 46 36 88 73 93 83
15 28 12 73 -10 190 -11 58 -20 126 -20 152 0 101 69 244 145 303 34 25 34 25
45 5 23 -43 129 -157 196 -210 38 -31 113 -91 166 -134 54 -43 136 -116 183
-163 71 -71 94 -102 130 -177 81 -169 175 -476 175 -574 0 -40 -7 -60 -40
-111 -44 -68 -100 -175 -100 -191 0 -6 55 -10 155 -10 l155 0 0 79 c0 77 1 80
30 101 17 12 34 37 41 59 10 34 7 48 -30 150 -23 63 -72 224 -108 360 -59 220
-66 257 -68 351 -1 58 -3 112 -4 121 0 10 -37 63 -82 120 -123 157 -147 207
-190 389 -17 71 -21 129 -25 358 -4 261 -5 276 -30 350 -30 92 -78 179 -145
268 l-49 66 32 -7 c145 -30 256 -146 313 -328 46 -145 57 -242 62 -561 l5
-299 206 7 c114 4 208 9 210 11 7 7 -18 345 -34 459 -45 321 -155 567 -306
684 -129 99 -246 135 -453 137 -134 1 -146 3 -270 42 -233 73 -266 78 -500 77
-184 0 -244 -5 -490 -38 -360 -48 -531 -59 -699 -47 -278 21 -450 115 -693
379 -322 349 -420 427 -613 490 -130 43 -247 50 -395 24z"/>
</g>
</svg>
