<?xml version="1.0" standalone="no"?>
<!DOCTYPE svg PUBLIC "-//W3C//DTD SVG 20010904//EN"
 "http://www.w3.org/TR/2001/REC-SVG-20010904/DTD/svg10.dtd">
<svg version="1.0" xmlns="http://www.w3.org/2000/svg"
 width="256.000000pt" height="136.000000pt" viewBox="0 0 256.000000 136.000000"
 preserveAspectRatio="xMidYMid meet">
<metadata>
Created by potrace 1.12, written by Peter Selinger 2001-2015
</metadata>
<g transform="translate(0.000000,136.000000) scale(0.100000,-0.100000)"
fill="#000000" stroke="none">
<path d="M1753 1335 c-60 -30 -101 -74 -110 -117 -8 -41 -19 -43 -63 -14 -96
64 -249 83 -390 51 -87 -21 -249 -102 -335 -168 -194 -149 -281 -367 -234
-586 9 -46 8 -55 -12 -91 -50 -89 -127 -106 -273 -61 -114 36 -172 39 -225 11
-35 -17 -115 -99 -106 -108 2 -2 25 3 52 12 118 38 210 28 311 -35 58 -36 140
-48 197 -29 21 7 57 32 81 55 l42 43 79 -62 c133 -105 224 -168 279 -193 130
-59 334 -56 334 6 0 31 22 41 78 34 56 -6 82 6 82 38 0 29 -46 64 -116 89 -78
27 -73 42 16 48 l61 4 107 -105 c135 -132 167 -150 287 -155 148 -7 234 20
217 67 -4 11 9 13 76 7 92 -8 122 1 122 39 0 19 -9 27 -55 44 -31 12 -61 21
-68 21 -26 0 -115 49 -131 71 -36 52 -6 198 46 215 12 4 104 8 203 9 248 0
276 17 240 142 -25 87 -103 219 -215 363 -19 25 -19 26 1 85 36 105 11 215
-60 262 -26 18 -48 23 -93 23 -52 0 -63 -4 -88 -28 -15 -16 -34 -47 -40 -69
l-13 -41 -21 41 c-54 101 -160 134 -263 82z m153 -129 c27 -27 34 -42 34 -74
0 -75 -83 -128 -153 -98 -48 20 -70 50 -70 95 0 67 46 110 117 111 30 0 45 -7
72 -34z"/>
</g>
</svg>
