<?xml version="1.0" standalone="no"?>
<!DOCTYPE svg PUBLIC "-//W3C//DTD SVG 20010904//EN"
 "http://www.w3.org/TR/2001/REC-SVG-20010904/DTD/svg10.dtd">
<svg version="1.0" xmlns="http://www.w3.org/2000/svg"
 width="1284.000000pt" height="768.000000pt" viewBox="0 0 1284.000000 768.000000"
 preserveAspectRatio="xMidYMid meet">
<metadata>
Created by potrace 1.12, written by Peter Selinger 2001-2015
</metadata>
<g transform="translate(0.000000,768.000000) scale(0.100000,-0.100000)"
fill="#000000" stroke="none">
<path d="M10135 7665 c-53 -19 -93 -67 -101 -124 -4 -25 -7 -217 -8 -426 0
-362 1 -384 22 -459 37 -131 147 -317 322 -540 106 -136 129 -185 137 -303 7
-97 -13 -512 -29 -593 -19 -97 -51 -140 -107 -140 -36 0 -127 -56 -195 -120
-39 -36 -84 -76 -100 -88 -38 -29 -90 -29 -130 2 -83 63 -251 127 -442 168
-93 20 -137 23 -304 23 -355 -1 -679 -68 -866 -179 -132 -78 -125 -70 -112
-147 8 -52 18 -75 44 -104 l33 -37 125 -13 c131 -14 197 -35 240 -79 11 -12
38 -32 58 -46 32 -22 113 -107 135 -144 5 -6 23 -22 41 -35 18 -12 41 -39 51
-60 11 -21 27 -44 36 -51 9 -8 30 -39 46 -69 16 -31 47 -81 69 -111 23 -33 56
-102 81 -170 30 -82 50 -122 70 -140 29 -25 63 -84 134 -230 55 -114 62 -153
41 -256 -19 -97 -42 -148 -90 -202 -18 -20 -41 -53 -51 -72 -61 -123 -260
-222 -475 -237 -63 -4 -103 -13 -153 -35 -49 -21 -77 -27 -98 -23 -35 8 -36 5
-4 -60 l25 -51 1 -358 0 -358 -34 -72 c-19 -39 -38 -89 -42 -112 l-6 -41 88
-6 c411 -30 770 -50 933 -51 185 -1 198 0 247 23 30 13 72 45 99 73 41 44 45
53 40 81 -4 18 -23 56 -44 84 -61 87 -102 156 -102 174 0 36 36 52 142 61 93
8 115 15 225 64 67 30 146 60 175 66 88 18 115 8 187 -72 45 -51 81 -80 129
-105 37 -18 128 -77 202 -130 74 -53 173 -115 219 -138 l84 -42 176 -3 c289
-6 521 34 575 99 47 55 27 135 -47 191 -17 14 -95 64 -172 112 -274 172 -325
225 -325 343 0 110 65 172 215 206 137 31 205 78 255 176 41 82 49 121 60 271
11 147 27 221 60 277 32 55 49 134 60 282 14 174 5 216 -61 310 -61 88 -67
113 -37 171 32 63 71 86 160 94 95 9 299 50 385 78 86 28 152 92 277 268 109
154 120 178 113 252 -9 101 -57 180 -151 252 -38 28 -45 42 -134 237 -16 36
-54 99 -84 140 -30 41 -88 128 -129 194 -101 163 -153 224 -226 262 -97 52
-231 92 -344 103 -56 5 -108 15 -115 21 -18 15 -23 47 -34 249 -7 139 -15 200
-39 297 -65 261 -182 570 -309 816 -92 179 -119 207 -195 206 -72 0 -156 -28
-178 -59 -23 -31 -39 -112 -39 -199 0 -80 -7 -108 -27 -116 -24 -8 -89 67
-153 175 -62 105 -158 214 -228 258 -91 58 -212 77 -297 47z"/>
<path d="M3325 7645 c-53 -19 -93 -67 -101 -124 -4 -25 -7 -217 -8 -426 0
-362 1 -384 22 -459 37 -131 147 -317 322 -540 106 -136 129 -185 137 -303 7
-97 -13 -512 -29 -593 -19 -97 -51 -140 -107 -140 -36 0 -127 -56 -195 -120
-39 -36 -84 -76 -100 -88 -38 -29 -90 -29 -130 2 -83 63 -251 127 -442 168
-93 20 -137 23 -304 23 -355 -1 -682 -68 -866 -179 -332 -199 -847 -686 -939
-888 -82 -180 -146 -654 -132 -992 5 -136 -1 -182 -26 -198 -23 -14 -38 -8
-86 37 -27 25 -62 49 -77 53 -57 15 -70 6 -102 -71 -56 -134 -63 -189 -37
-287 l14 -54 -59 -62 c-100 -104 -96 -119 73 -307 148 -165 253 -248 410 -323
71 -34 72 -34 215 -34 166 0 268 -17 354 -61 85 -43 198 -77 324 -99 101 -18
537 -50 1074 -81 348 -20 435 -4 526 93 41 44 45 53 40 81 -4 18 -23 56 -44
84 -61 87 -102 156 -102 174 0 36 36 52 142 61 93 8 115 15 223 63 202 90 261
97 324 40 21 -19 41 -35 44 -35 2 0 12 15 21 34 12 25 16 64 16 148 0 196 23
324 69 382 17 21 52 76 78 123 54 96 218 286 297 343 27 19 77 63 112 97 36
35 87 74 114 88 27 14 60 39 74 57 13 18 51 48 83 67 32 19 94 58 138 87 128
84 255 142 378 173 78 21 113 34 115 45 9 42 -21 127 -69 195 -61 88 -67 113
-37 171 32 63 71 86 160 94 95 9 299 50 385 78 86 28 152 92 277 268 109 154
120 178 113 252 -9 101 -57 180 -151 252 -38 28 -45 42 -134 237 -16 36 -54
99 -84 140 -30 41 -88 128 -129 194 -101 163 -153 224 -226 262 -97 52 -231
92 -344 103 -56 5 -108 15 -115 21 -18 15 -23 47 -34 249 -7 139 -15 200 -39
297 -65 261 -182 570 -309 816 -92 179 -119 207 -195 206 -72 0 -156 -28 -178
-59 -23 -31 -39 -112 -39 -199 0 -80 -7 -108 -27 -116 -24 -8 -89 67 -153 175
-62 105 -158 214 -228 258 -91 58 -212 77 -297 47z"/>
<path d="M6645 6225 c-53 -19 -93 -67 -101 -124 -4 -25 -7 -217 -8 -426 0
-362 1 -384 22 -459 37 -131 147 -317 322 -540 106 -136 129 -185 137 -303 7
-97 -13 -512 -29 -593 -19 -97 -51 -140 -107 -140 -36 0 -127 -56 -195 -120
-39 -36 -84 -76 -100 -88 -38 -29 -90 -29 -130 2 -83 63 -251 127 -442 168
-93 20 -137 23 -304 23 -355 -1 -682 -68 -866 -179 -332 -199 -847 -686 -939
-888 -82 -180 -146 -654 -132 -992 5 -136 -1 -182 -26 -198 -23 -14 -38 -8
-86 37 -27 25 -62 49 -77 53 -57 15 -70 6 -102 -71 -56 -134 -63 -189 -37
-287 l14 -54 -59 -62 c-100 -104 -96 -119 73 -307 148 -165 253 -248 410 -323
71 -34 72 -34 215 -34 166 0 268 -17 354 -61 85 -43 198 -77 324 -99 101 -18
537 -50 1074 -81 348 -20 435 -4 526 93 41 44 45 53 40 81 -4 18 -23 56 -44
84 -61 87 -102 156 -102 174 0 36 36 52 142 61 93 8 115 15 225 64 67 30 146
60 175 66 88 18 115 8 187 -72 45 -51 81 -80 129 -105 37 -18 128 -77 202
-130 74 -53 173 -115 219 -138 l84 -42 176 -3 c289 -6 521 34 575 99 47 55 27
135 -47 191 -17 14 -95 64 -172 112 -274 172 -325 225 -325 343 0 110 65 172
215 206 137 31 205 78 255 176 41 82 49 121 60 271 11 147 27 221 60 277 32
55 49 134 60 282 14 174 5 216 -61 310 -61 88 -67 113 -37 171 32 63 71 86
160 94 95 9 299 50 385 78 86 28 152 92 277 268 109 154 120 178 113 252 -9
101 -57 180 -151 252 -38 28 -45 42 -134 237 -16 36 -54 99 -84 140 -30 41
-88 128 -129 194 -101 163 -153 224 -226 262 -97 52 -231 92 -344 103 -56 5
-108 15 -115 21 -18 15 -23 47 -34 249 -7 139 -15 200 -39 297 -65 261 -182
570 -309 816 -92 179 -119 207 -195 206 -72 0 -156 -28 -178 -59 -23 -31 -39
-112 -39 -199 0 -80 -7 -108 -27 -116 -24 -8 -89 67 -153 175 -62 105 -158
214 -228 258 -91 58 -212 77 -297 47z"/>
</g>
</svg>
