<?xml version="1.0" standalone="no"?>
<!DOCTYPE svg PUBLIC "-//W3C//DTD SVG 20010904//EN"
 "http://www.w3.org/TR/2001/REC-SVG-20010904/DTD/svg10.dtd">
<svg version="1.0" xmlns="http://www.w3.org/2000/svg"
 width="464.000000pt" height="412.000000pt" viewBox="0 0 464.000000 412.000000"
 preserveAspectRatio="xMidYMid meet">
<metadata>
Created by potrace 1.12, written by Peter Selinger 2001-2015
</metadata>
<g transform="translate(0.000000,412.000000) scale(0.100000,-0.100000)"
fill="#000000" stroke="none">
<path d="M2978 4090 c-34 -26 -52 -72 -46 -118 3 -20 26 -88 51 -151 25 -63
43 -110 38 -105 -4 5 -34 46 -66 92 -33 46 -78 101 -101 122 -107 99 -241 123
-279 50 -36 -69 -21 -122 150 -520 149 -349 173 -419 185 -545 6 -55 8 -106 5
-115 -6 -18 -56 -50 -78 -50 -8 0 -83 31 -165 69 -116 53 -175 74 -254 90
-367 73 -683 80 -943 20 -230 -52 -429 -163 -580 -320 -127 -133 -219 -275
-314 -489 -57 -129 -121 -493 -147 -838 l-7 -94 -106 105 c-126 124 -144 137
-192 137 -71 0 -110 -52 -124 -167 -20 -153 100 -383 292 -564 121 -113 159
-126 251 -88 l51 21 102 -88 c117 -100 174 -157 271 -266 71 -80 99 -95 243
-132 102 -27 866 -138 901 -132 113 22 197 179 148 281 -16 34 -90 98 -178
154 -33 21 -43 31 -30 31 98 0 803 -105 914 -136 52 -15 60 -20 76 -57 27 -59
118 -147 189 -181 67 -33 183 -66 229 -66 48 0 108 20 144 47 37 28 72 90 72
128 0 64 -65 152 -164 225 -114 83 -147 114 -182 171 -51 84 -48 95 44 154
153 99 329 303 424 493 52 103 74 170 92 277 l12 69 65 17 c90 23 187 66 304
134 187 108 274 189 328 303 28 59 32 77 31 152 0 97 -22 168 -81 265 -55 91
-335 482 -403 563 -119 141 -271 239 -388 249 l-62 6 -73 126 c-41 69 -103
178 -137 241 -83 150 -160 261 -236 335 -103 102 -218 141 -276 95z m882
-1249 c36 -26 51 -61 46 -104 -9 -76 -89 -123 -158 -94 -46 19 -71 57 -71 107
0 97 104 149 183 91z"/>
</g>
</svg>
