<?xml version="1.0" standalone="no"?>
<!DOCTYPE svg PUBLIC "-//W3C//DTD SVG 20010904//EN"
 "http://www.w3.org/TR/2001/REC-SVG-20010904/DTD/svg10.dtd">
<svg version="1.0" xmlns="http://www.w3.org/2000/svg"
 width="122.000000pt" height="125.000000pt" viewBox="0 0 122.000000 125.000000"
 preserveAspectRatio="xMidYMid meet">
<metadata>
Created by potrace 1.12, written by Peter Selinger 2001-2015
</metadata>
<g transform="translate(0.000000,125.000000) scale(0.100000,-0.100000)"
fill="#000000" stroke="none">
<path d="M584 1221 c-35 -22 -60 -53 -97 -126 -14 -27 -36 -62 -49 -77 l-23
-28 -45 16 c-54 19 -141 14 -190 -11 -116 -60 -212 -254 -152 -308 27 -25 81
-44 144 -51 56 -7 57 -8 48 -32 -16 -41 -12 -105 11 -169 20 -57 20 -61 4
-159 -9 -56 -19 -111 -21 -124 -5 -24 -39 -42 -78 -42 -60 0 -106 -90 -53
-104 37 -10 137 -7 159 5 11 6 42 57 70 116 l49 106 -12 71 c-14 84 -3 138 37
185 48 58 145 65 201 16 l28 -24 -60 -1 c-106 0 -165 -61 -150 -156 14 -93 92
-152 236 -178 l74 -14 -55 -1 c-96 -2 -228 -21 -277 -39 -35 -13 -50 -25 -57
-45 -5 -14 -6 -30 -2 -34 4 -5 168 -9 364 -11 285 -2 361 0 375 11 17 12 18
18 6 73 -7 34 -9 68 -6 78 6 15 9 15 35 2 37 -19 94 -28 110 -18 9 6 12 32 10
93 -3 77 -5 84 -24 87 -19 3 -22 11 -26 70 -3 46 -14 85 -33 125 -34 70 -133
181 -184 207 -46 23 -136 40 -215 40 -116 1 -199 17 -223 46 -35 38 -30 67 15
92 50 28 165 134 191 176 12 18 21 45 21 60 0 21 -6 28 -29 32 -23 5 -31 12
-33 33 -2 21 -9 27 -33 29 -17 1 -44 -6 -61 -17z"/>
</g>
</svg>
